<mxfile host="app.diagrams.net" modified="2024-01-10T15:07:58.798Z" agent="Mozilla/5.0 (Windows NT 10.0; Win64; x64) AppleWebKit/537.36 (KHTML, like Gecko) Chrome/120.0.0.0 Safari/537.36" etag="7aUjhdtaPwFVa4NnBrDo" version="22.1.16" type="github">
  <diagram name="Page-1" id="ux_PUUvleqaBWZlEBw-f">
    <mxGraphModel dx="660" dy="1748" grid="1" gridSize="10" guides="1" tooltips="1" connect="1" arrows="1" fold="1" page="1" pageScale="1" pageWidth="850" pageHeight="1100" math="0" shadow="0">
      <root>
        <mxCell id="0" />
        <mxCell id="1" parent="0" />
        <mxCell id="UPqFP9dvztDmVUfjEWiZ-3" value="" style="rounded=0;whiteSpace=wrap;html=1;fillColor=#bac8d3;strokeColor=#23445d;" vertex="1" parent="1">
          <mxGeometry x="169" y="-703.41" width="430" height="95" as="geometry" />
        </mxCell>
        <mxCell id="UPqFP9dvztDmVUfjEWiZ-4" value="&lt;b&gt;Node&amp;nbsp;&lt;/b&gt;192.168.0.3&lt;b&gt;&amp;nbsp;&lt;/b&gt;" style="text;html=1;strokeColor=none;fillColor=none;align=center;verticalAlign=middle;whiteSpace=wrap;rounded=0;" vertex="1" parent="1">
          <mxGeometry x="474" y="-705.41" width="150" height="27" as="geometry" />
        </mxCell>
        <mxCell id="UPqFP9dvztDmVUfjEWiZ-1" value="" style="rounded=0;whiteSpace=wrap;html=1;fillColor=#bac8d3;strokeColor=#23445d;" vertex="1" parent="1">
          <mxGeometry x="169" y="-805.91" width="430" height="95" as="geometry" />
        </mxCell>
        <mxCell id="RruQv3TNjF2r6rg1G-1i-2" value="" style="rounded=0;whiteSpace=wrap;html=1;fillColor=#bac8d3;strokeColor=#23445d;" parent="1" vertex="1">
          <mxGeometry x="169" y="-908" width="430" height="95" as="geometry" />
        </mxCell>
        <mxCell id="RruQv3TNjF2r6rg1G-1i-3" value="&lt;b&gt;Node&amp;nbsp;&lt;/b&gt;192.168.0.1&lt;b&gt;&amp;nbsp;&lt;/b&gt;" style="text;html=1;strokeColor=none;fillColor=none;align=center;verticalAlign=middle;whiteSpace=wrap;rounded=0;" parent="1" vertex="1">
          <mxGeometry x="474" y="-910" width="150" height="27" as="geometry" />
        </mxCell>
        <mxCell id="RruQv3TNjF2r6rg1G-1i-4" value="" style="verticalLabelPosition=bottom;verticalAlign=top;html=1;shape=mxgraph.basic.polygon;polyCoords=[[0,0.25],[0.5,0],[1,0.25],[1,0.75],[0.5,1],[0,0.75],[0,0.25]];polyline=1;fillColor=default;perimeter=rectanglePerimeter;" parent="1" vertex="1">
          <mxGeometry x="413.88" y="-903.59" width="78.25" height="86" as="geometry" />
        </mxCell>
        <mxCell id="RruQv3TNjF2r6rg1G-1i-8" value="&lt;font style=&quot;font-size: 10px;&quot;&gt;&lt;b style=&quot;border-color: var(--border-color); text-align: center;&quot;&gt;Pod&amp;nbsp;&lt;/b&gt;&lt;span style=&quot;border-color: var(--border-color); text-align: center;&quot;&gt;10.244.0.1&lt;/span&gt;&lt;/font&gt;" style="text;whiteSpace=wrap;html=1;rotation=0;" parent="1" vertex="1">
          <mxGeometry x="415.45" y="-887.4" width="71.12" height="27" as="geometry" />
        </mxCell>
        <mxCell id="RruQv3TNjF2r6rg1G-1i-16" value="&lt;font style=&quot;font-size: 16px;&quot;&gt;Service&lt;/font&gt;" style="rounded=0;whiteSpace=wrap;html=1;" parent="1" vertex="1">
          <mxGeometry x="244" y="-900" width="86" height="280" as="geometry" />
        </mxCell>
        <mxCell id="dw3Hb77Bc445a3Hw7hz_-9" value="" style="verticalLabelPosition=bottom;verticalAlign=top;html=1;shape=mxgraph.basic.polygon;polyCoords=[[0,0.25],[0.5,0],[1,0.25],[1,0.75],[0.5,1],[0,0.75],[0,0.25]];polyline=1;fillColor=default;perimeter=rectanglePerimeter;" parent="1" vertex="1">
          <mxGeometry x="413.88" y="-802.41" width="78.25" height="86" as="geometry" />
        </mxCell>
        <mxCell id="dw3Hb77Bc445a3Hw7hz_-10" value="&lt;font style=&quot;font-size: 10px;&quot;&gt;&lt;b style=&quot;border-color: var(--border-color); text-align: center;&quot;&gt;Pod&amp;nbsp;&lt;/b&gt;&lt;span style=&quot;border-color: var(--border-color); text-align: center;&quot;&gt;10.244.0.2&lt;/span&gt;&lt;/font&gt;" style="text;whiteSpace=wrap;html=1;rotation=0;" parent="1" vertex="1">
          <mxGeometry x="415.45000000000005" y="-784.2199999999999" width="71.12" height="27" as="geometry" />
        </mxCell>
        <mxCell id="dw3Hb77Bc445a3Hw7hz_-11" value="" style="verticalLabelPosition=bottom;verticalAlign=top;html=1;shape=mxgraph.basic.polygon;polyCoords=[[0,0.25],[0.5,0],[1,0.25],[1,0.75],[0.5,1],[0,0.75],[0,0.25]];polyline=1;fillColor=default;perimeter=rectanglePerimeter;" parent="1" vertex="1">
          <mxGeometry x="413.88" y="-702.41" width="78.25" height="86" as="geometry" />
        </mxCell>
        <mxCell id="dw3Hb77Bc445a3Hw7hz_-12" value="&lt;font style=&quot;font-size: 10px;&quot;&gt;&lt;b style=&quot;border-color: var(--border-color); text-align: center;&quot;&gt;Pod&amp;nbsp;&lt;/b&gt;&lt;span style=&quot;border-color: var(--border-color); text-align: center;&quot;&gt;10.244.0.3&lt;/span&gt;&lt;/font&gt;" style="text;whiteSpace=wrap;html=1;rotation=0;" parent="1" vertex="1">
          <mxGeometry x="415.45000000000005" y="-684.2199999999999" width="71.12" height="27" as="geometry" />
        </mxCell>
        <mxCell id="dw3Hb77Bc445a3Hw7hz_-13" value="" style="endArrow=none;html=1;rounded=0;exitX=0.5;exitY=1;exitDx=0;exitDy=0;entryX=0;entryY=1;entryDx=0;entryDy=0;dashed=1;" parent="1" edge="1">
          <mxGeometry width="50" height="50" relative="1" as="geometry">
            <mxPoint x="329" y="-757.2199999999999" as="sourcePoint" />
            <mxPoint x="414.45000000000005" y="-757.2199999999999" as="targetPoint" />
          </mxGeometry>
        </mxCell>
        <mxCell id="UPqFP9dvztDmVUfjEWiZ-2" value="&lt;b&gt;Node&amp;nbsp;&lt;/b&gt;192.168.0.2&lt;b&gt;&amp;nbsp;&lt;/b&gt;" style="text;html=1;strokeColor=none;fillColor=none;align=center;verticalAlign=middle;whiteSpace=wrap;rounded=0;" vertex="1" parent="1">
          <mxGeometry x="474" y="-807.91" width="150" height="27" as="geometry" />
        </mxCell>
        <mxCell id="UPqFP9dvztDmVUfjEWiZ-6" value="" style="endArrow=none;html=1;rounded=0;exitX=0.5;exitY=1;exitDx=0;exitDy=0;entryX=0;entryY=1;entryDx=0;entryDy=0;dashed=1;" edge="1" parent="1">
          <mxGeometry width="50" height="50" relative="1" as="geometry">
            <mxPoint x="329" y="-659.2199999999999" as="sourcePoint" />
            <mxPoint x="414.45000000000005" y="-659.2199999999999" as="targetPoint" />
          </mxGeometry>
        </mxCell>
        <mxCell id="UPqFP9dvztDmVUfjEWiZ-7" value="" style="endArrow=none;html=1;rounded=0;exitX=0.5;exitY=1;exitDx=0;exitDy=0;entryX=0;entryY=1;entryDx=0;entryDy=0;dashed=1;" edge="1" parent="1">
          <mxGeometry width="50" height="50" relative="1" as="geometry">
            <mxPoint x="329" y="-859.2199999999999" as="sourcePoint" />
            <mxPoint x="414.45000000000005" y="-859.2199999999999" as="targetPoint" />
          </mxGeometry>
        </mxCell>
        <mxCell id="UPqFP9dvztDmVUfjEWiZ-8" value="30008" style="rounded=1;whiteSpace=wrap;html=1;rotation=-90;" vertex="1" parent="1">
          <mxGeometry x="150" y="-665.9100000000001" width="60" height="20" as="geometry" />
        </mxCell>
        <mxCell id="UPqFP9dvztDmVUfjEWiZ-11" value="30008" style="rounded=1;whiteSpace=wrap;html=1;rotation=-90;" vertex="1" parent="1">
          <mxGeometry x="150" y="-768.4100000000001" width="60" height="20" as="geometry" />
        </mxCell>
        <mxCell id="UPqFP9dvztDmVUfjEWiZ-12" value="30008" style="rounded=1;whiteSpace=wrap;html=1;rotation=-90;" vertex="1" parent="1">
          <mxGeometry x="150" y="-870.5000000000001" width="60" height="20" as="geometry" />
        </mxCell>
      </root>
    </mxGraphModel>
  </diagram>
</mxfile>
